# Blender v2.79 (sub 0) OBJ File: 'card.blend'
# www.blender.org
mtllib card.mtl
o Cube
v 0.026043 -1.391238 -0.820000
v 0.026043 -1.211238 -1.000000
v 0.026043 -1.377536 -0.888883
v 0.026043 -1.338517 -0.947279
v 0.026043 -1.280121 -0.986298
v 0.026043 -1.211238 1.000000
v 0.026043 -1.391238 0.820000
v 0.026043 -1.280121 0.986298
v 0.026043 -1.338517 0.947279
v 0.026043 -1.377536 0.888883
v -0.026043 -1.391238 0.820000
v -0.026043 -1.211238 1.000000
v -0.026043 -1.377536 0.888883
v -0.026043 -1.338517 0.947279
v -0.026043 -1.280121 0.986298
v -0.026043 -1.211238 -1.000000
v -0.026043 -1.391238 -0.820000
v -0.026043 -1.280121 -0.986299
v -0.026043 -1.338517 -0.947280
v -0.026043 -1.377536 -0.888883
v 0.026044 1.211238 -1.000000
v 0.026044 1.391238 -0.820000
v 0.026044 1.280121 -0.986298
v 0.026044 1.338517 -0.947279
v 0.026044 1.377536 -0.888883
v 0.026043 1.391238 0.820001
v 0.026043 1.211238 1.000001
v 0.026043 1.377536 0.888884
v 0.026043 1.338517 0.947280
v 0.026043 1.280121 0.986299
v -0.026043 1.211238 1.000000
v -0.026043 1.391238 0.820000
v -0.026043 1.280121 0.986298
v -0.026043 1.338517 0.947279
v -0.026043 1.377536 0.888883
v -0.026043 1.391238 -0.820000
v -0.026043 1.211238 -1.000000
v -0.026043 1.377536 -0.888883
v -0.026043 1.338517 -0.947279
v -0.026043 1.280121 -0.986298
v -0.026043 1.211238 -0.820000
v -0.026043 -1.211238 -0.820000
v -0.026043 1.211238 0.820000
v -0.026043 -1.211238 0.820000
v 0.026043 -1.211238 0.820000
v 0.026043 1.211238 0.820001
v 0.026043 -1.211238 -0.819999
v 0.026044 1.211238 -0.820000
vt 0.974200 0.623848
vt 0.974199 0.034331
vt 0.986874 0.034331
vt 0.986878 0.623848
vt 0.433449 0.690323
vt 0.034333 0.690279
vt 0.034334 0.677603
vt 0.433450 0.677647
vt 0.443070 0.000149
vt 0.443070 0.043954
vt 0.043954 0.043954
vt 0.043954 0.000148
vt 0.433455 0.690630
vt 0.433454 0.703306
vt 0.034331 0.703300
vt 0.034331 0.690624
vt 0.999850 0.034330
vt 0.999851 0.623887
vt 0.987175 0.623887
vt 0.987175 0.034330
vt 0.450542 0.677649
vt 0.450541 0.690325
vt 0.467634 0.677651
vt 0.467633 0.690327
vt 0.974198 0.000149
vt 0.986874 0.000148
vt 0.986874 0.017240
vt 0.974198 0.017240
vt 0.987175 0.017239
vt 0.999850 0.017239
vt 0.987175 0.000149
vt 0.999850 0.000148
vt 0.000148 0.690275
vt 0.000150 0.677599
vt 0.017242 0.677601
vt 0.017241 0.690277
vt 0.986878 0.640942
vt 0.974201 0.640942
vt 0.986878 0.658036
vt 0.974200 0.658036
vt 0.467639 0.690631
vt 0.467639 0.703307
vt 0.450547 0.703307
vt 0.450547 0.690631
vt 0.017240 0.703299
vt 0.017240 0.690624
vt 0.000148 0.703299
vt 0.000148 0.690624
vt 0.999851 0.658072
vt 0.987175 0.658072
vt 0.987175 0.640980
vt 0.999851 0.640980
vt 0.930096 0.000149
vt 0.930096 0.043954
vt 0.530979 0.043954
vt 0.530980 0.000148
vt 0.487173 0.633496
vt 0.530979 0.633496
vt 0.500004 0.664471
vt 0.490508 0.650260
vt 0.000148 0.633496
vt 0.043954 0.633496
vt 0.012979 0.664472
vt 0.003483 0.650260
vt 0.487174 0.043954
vt 0.000149 0.043954
vt 0.012979 0.012979
vt 0.027191 0.003483
vt 0.443071 0.633496
vt 0.043954 0.677302
vt 0.443071 0.677301
vt 0.486876 0.043954
vt 0.486876 0.633496
vt 0.474046 0.664471
vt 0.459835 0.673967
vt 0.459834 0.003483
vt 0.474045 0.012979
vt 0.500004 0.012979
vt 0.514216 0.003483
vt 0.930096 0.633496
vt 0.530979 0.677302
vt 0.930096 0.677302
vt 0.946859 0.003483
vt 0.961071 0.012979
vt 0.973901 0.043954
vt 0.973901 0.633496
vt 0.961071 0.664471
vt 0.946859 0.673967
vt 0.490509 0.027190
vt 0.483541 0.027190
vt 0.003483 0.027190
vt 0.970567 0.027191
vt 0.970567 0.650260
vt 0.027190 0.673967
vt 0.483542 0.650260
vt 0.514215 0.673967
vn 0.0000 0.0000 -1.0000
vn 0.0000 -1.0000 0.0000
vn -1.0000 -0.0000 -0.0000
vn 0.0000 1.0000 0.0000
vn -0.0000 -0.0000 1.0000
vn 0.0000 -0.9808 -0.1951
vn 0.0000 -0.8315 -0.5556
vn 0.0000 -0.5556 -0.8315
vn 0.0000 -0.1951 -0.9808
vn -0.0000 -0.1951 0.9808
vn -0.0000 -0.5556 0.8315
vn -0.0000 -0.8315 0.5556
vn -0.0000 -0.9808 0.1951
vn 0.0000 0.1951 -0.9808
vn 0.0000 0.5556 -0.8315
vn 0.0000 0.8315 -0.5556
vn 0.0000 0.9808 -0.1951
vn -0.0000 0.9808 0.1951
vn -0.0000 0.8315 0.5556
vn -0.0000 0.5556 0.8315
vn -0.0000 0.1951 0.9808
vn 1.0000 0.0000 0.0000
usemtl Material
s off
f 21/1/1 2/2/1 16/3/1 37/4/1
f 1/5/2 7/6/2 11/7/2 17/8/2
f 11/9/3 44/10/3 42/11/3 17/12/3
f 22/13/4 36/14/4 32/15/4 26/16/4
f 6/17/5 27/18/5 31/19/5 12/20/5
f 1/5/6 17/8/6 20/21/6 3/22/6
f 3/22/7 20/21/7 19/23/7 4/24/7
f 4/25/8 19/26/8 18/27/8 5/28/8
f 5/28/9 18/27/9 16/3/9 2/2/9
f 6/17/10 12/20/10 15/29/10 8/30/10
f 8/30/11 15/29/11 14/31/11 9/32/11
f 9/33/12 14/34/12 13/35/12 10/36/12
f 10/36/13 13/35/13 11/7/13 7/6/13
f 21/1/14 37/4/14 40/37/14 23/38/14
f 23/38/15 40/37/15 39/39/15 24/40/15
f 24/41/16 39/42/16 38/43/16 25/44/16
f 25/44/17 38/43/17 36/14/17 22/13/17
f 26/16/18 32/15/18 35/45/18 28/46/18
f 28/46/19 35/45/19 34/47/19 29/48/19
f 29/49/20 34/50/20 33/51/20 30/52/20
f 30/52/21 33/51/21 31/19/21 27/18/21
f 1/53/22 47/54/22 45/55/22 7/56/22
f 27/57/22 46/58/22 29/59/22 30/60/22
f 37/61/3 41/62/3 39/63/3 40/64/3
f 6/65/22 45/55/22 46/58/22 27/57/22
f 16/66/3 42/11/3 41/62/3 37/61/3
f 17/12/3 42/11/3 19/67/3 20/68/3
f 41/62/3 42/11/3 44/10/3 43/69/3
f 36/70/3 41/62/3 43/69/3 32/71/3
f 43/69/3 44/10/3 12/72/3 31/73/3
f 32/71/3 43/69/3 34/74/3 35/75/3
f 44/10/3 11/9/3 13/76/3 14/77/3
f 7/56/22 45/55/22 9/78/22 10/79/22
f 46/58/22 45/55/22 47/54/22 48/80/22
f 26/81/22 46/58/22 48/80/22 22/82/22
f 47/54/22 1/53/22 3/83/22 4/84/22
f 48/80/22 47/54/22 2/85/22 21/86/22
f 22/82/22 48/80/22 24/87/22 25/88/22
f 9/78/22 45/55/22 6/65/22 8/89/22
f 14/77/3 15/90/3 12/72/3 44/10/3
f 19/67/3 42/11/3 16/66/3 18/91/3
f 4/84/22 5/92/22 2/85/22 47/54/22
f 24/87/22 48/80/22 21/86/22 23/93/22
f 39/63/3 41/62/3 36/70/3 38/94/3
f 34/74/3 43/69/3 31/73/3 33/95/3
f 29/59/22 46/58/22 26/81/22 28/96/22
